<svg width="85" height="20" viewBox="0 0 85 20" fill="none" xmlns="http://www.w3.org/2000/svg">
<path d="M0.380005 19.4V17.54H2C2.46667 17.54 2.8 17.44 3 17.24C3.21334 17.0533 3.32 16.7333 3.32 16.28V6.88001H0.800005V5.08001H3.32V3.70001C3.32 2.59334 3.59334 1.80001 4.14 1.32001C4.68667 0.840006 5.46667 0.600006 6.48001 0.600006H8.90001V2.46001H6.74001C6.27334 2.46001 5.94001 2.55334 5.74001 2.74001C5.54001 2.92667 5.44001 3.25334 5.44001 3.72001V5.08001H8.90001V6.88001H5.44001V16.3C5.44001 17.4067 5.16667 18.2 4.62001 18.68C4.07334 19.16 3.28667 19.4 2.26 19.4H0.380005Z" fill="#282828"/>
<path d="M12.2922 15.24C11.5055 15.24 10.8455 15.1067 10.3122 14.84C9.77886 14.56 9.37886 14.1933 9.11219 13.74C8.84553 13.2733 8.71219 12.7667 8.71219 12.22C8.71219 11.2467 9.06553 10.4867 9.77219 9.94001C10.4922 9.39334 11.5055 9.12001 12.8122 9.12001H15.3722V8.90001C15.3722 7.40667 14.6789 6.66001 13.2922 6.66001C12.7189 6.66001 12.2322 6.78667 11.8322 7.04001C11.4455 7.28001 11.1855 7.67334 11.0522 8.22001H8.93219C9.03886 7.18001 9.48553 6.36001 10.2722 5.76001C11.0722 5.14667 12.0789 4.84001 13.2922 4.84001C14.7589 4.84001 15.8255 5.20001 16.4922 5.92001C17.1589 6.64001 17.4922 7.63334 17.4922 8.90001V15H15.6922L15.5122 13.54H15.3722C15.0789 14.0067 14.7122 14.4067 14.2722 14.74C13.8322 15.0733 13.1722 15.24 12.2922 15.24ZM12.6922 13.46C13.5589 13.46 14.2055 13.2 14.6322 12.68C15.0722 12.1467 15.3122 11.4733 15.3522 10.66H13.0322C12.2722 10.66 11.7322 10.7867 11.4122 11.04C11.1055 11.28 10.9522 11.62 10.9522 12.06C10.9522 12.5 11.1055 12.8467 11.4122 13.1C11.7322 13.34 12.1589 13.46 12.6922 13.46Z" fill="#282828"/>
<path d="M19.3444 15V0.600006H21.4644V9.24001L25.2644 5.08001H27.9244L23.7844 9.48001V9.64001L28.4644 15H25.8844L21.4644 9.90001V15H19.3444Z" fill="#282828"/>
<path d="M32.8966 15.24C31.9366 15.24 31.0899 15.0267 30.3566 14.6C29.6232 14.16 29.0499 13.5533 28.6366 12.78C28.2232 12.0067 28.0166 11.1067 28.0166 10.08C28.0166 9.04001 28.2166 8.12667 28.6166 7.34001C29.0299 6.55334 29.6032 5.94001 30.3366 5.50001C31.0832 5.06001 31.9432 4.84001 32.9166 4.84001C33.8766 4.84001 34.7032 5.06001 35.3966 5.50001C36.0899 5.92667 36.6232 6.50001 36.9966 7.22001C37.3832 7.94001 37.5766 8.73334 37.5766 9.60001C37.5766 9.73334 37.5766 9.88001 37.5766 10.04C37.5766 10.1867 37.5699 10.3533 37.5566 10.54H30.0966C30.1632 11.46 30.4632 12.16 30.9966 12.64C31.5299 13.1067 32.1566 13.34 32.8766 13.34C33.5032 13.34 33.9966 13.2133 34.3566 12.96C34.7299 12.6933 35.0032 12.3333 35.1766 11.88H37.3166C37.0766 12.8267 36.5766 13.6267 35.8166 14.28C35.0566 14.92 34.0832 15.24 32.8966 15.24ZM32.8966 6.68001C32.2432 6.68001 31.6632 6.88001 31.1566 7.28001C30.6499 7.66667 30.3232 8.21334 30.1766 8.92001H35.4566C35.4032 8.25334 35.1432 7.71334 34.6766 7.30001C34.2099 6.88667 33.6166 6.68001 32.8966 6.68001Z" fill="#282828"/>
<path d="M40.7688 15.12C40.2754 15.12 39.8554 14.96 39.5088 14.64C39.1621 14.3067 38.9888 13.9067 38.9888 13.44C38.9888 12.9733 39.1621 12.58 39.5088 12.26C39.8554 11.94 40.2754 11.78 40.7688 11.78C41.2754 11.78 41.6954 11.94 42.0288 12.26C42.3754 12.58 42.5488 12.9733 42.5488 13.44C42.5488 13.9067 42.3754 14.3067 42.0288 14.64C41.6954 14.96 41.2754 15.12 40.7688 15.12Z" fill="#282828"/>
<path d="M48.8409 15.24C47.5343 15.24 46.4943 14.9333 45.7209 14.32C44.9476 13.7067 44.5076 12.8933 44.4009 11.88H46.5809C46.6609 12.3467 46.8943 12.7267 47.2809 13.02C47.6809 13.3133 48.2076 13.46 48.8609 13.46C49.4876 13.46 49.9676 13.3333 50.3009 13.08C50.6476 12.8133 50.8209 12.5067 50.8209 12.16C50.8209 11.6533 50.6143 11.3067 50.2009 11.12C49.8009 10.9333 49.2076 10.7933 48.4209 10.7C47.7409 10.62 47.1209 10.4667 46.5609 10.24C46.0143 10 45.5809 9.68001 45.2609 9.28001C44.9409 8.86667 44.7809 8.35334 44.7809 7.74001C44.7809 6.87334 45.1209 6.17334 45.8009 5.64001C46.4809 5.10667 47.4276 4.84001 48.6409 4.84001C49.8543 4.84001 50.7943 5.11334 51.4609 5.66001C52.1276 6.20667 52.5143 6.95334 52.6209 7.90001H50.5809C50.5276 7.50001 50.3209 7.18667 49.9609 6.96001C49.6009 6.72001 49.1543 6.60001 48.6209 6.60001C48.0743 6.60001 47.6409 6.70667 47.3209 6.92001C47.0009 7.12001 46.8409 7.38667 46.8409 7.72001C46.8409 8.44001 47.6143 8.88001 49.1609 9.04001C49.8943 9.12001 50.5476 9.26001 51.1209 9.46001C51.6943 9.64667 52.1476 9.94667 52.4809 10.36C52.8143 10.76 52.9809 11.3267 52.9809 12.06C52.9943 12.66 52.8209 13.2 52.4609 13.68C52.1143 14.16 51.6276 14.54 51.0009 14.82C50.3876 15.1 49.6676 15.24 48.8409 15.24Z" fill="#282828"/>
<path d="M54.4131 15V0.600006H56.5331V6.56001C56.7998 6.06667 57.2265 5.66001 57.8131 5.34001C58.3998 5.00667 59.0598 4.84001 59.7931 4.84001C61.0198 4.84001 61.9531 5.21334 62.5931 5.96001C63.2331 6.69334 63.5531 7.75334 63.5531 9.14001V15H61.4331V9.44001C61.4331 8.61334 61.2331 7.97334 60.8331 7.52001C60.4331 7.06667 59.8798 6.84001 59.1731 6.84001C58.4398 6.84001 57.8131 7.08667 57.2931 7.58001C56.7865 8.07334 56.5331 8.78667 56.5331 9.72001V15H54.4131Z" fill="#282828"/>
<path d="M69.1453 15.24C68.1987 15.24 67.352 15.0267 66.6053 14.6C65.8586 14.1733 65.272 13.5733 64.8453 12.8C64.4186 12.0133 64.2053 11.0933 64.2053 10.04C64.2053 8.98667 64.4186 8.07334 64.8453 7.30001C65.272 6.51334 65.8586 5.90667 66.6053 5.48001C67.352 5.05334 68.2053 4.84001 69.1653 4.84001C70.1253 4.84001 70.972 5.05334 71.7053 5.48001C72.452 5.90667 73.032 6.51334 73.4453 7.30001C73.872 8.07334 74.0853 8.98667 74.0853 10.04C74.0853 11.0933 73.872 12.0133 73.4453 12.8C73.0187 13.5733 72.432 14.1733 71.6853 14.6C70.952 15.0267 70.1053 15.24 69.1453 15.24ZM69.1453 13.22C69.652 13.22 70.1187 13.1067 70.5453 12.88C70.972 12.6533 71.312 12.3067 71.5653 11.84C71.832 11.36 71.9653 10.76 71.9653 10.04C71.9653 9.30667 71.832 8.70667 71.5653 8.24001C71.312 7.77334 70.972 7.42667 70.5453 7.20001C70.132 6.97334 69.672 6.86001 69.1653 6.86001C68.6587 6.86001 68.192 6.97334 67.7653 7.20001C67.3387 7.42667 66.992 7.77334 66.7253 8.24001C66.472 8.70667 66.3453 9.30667 66.3453 10.04C66.3453 11.1333 66.6186 11.94 67.1653 12.46C67.7253 12.9667 68.3853 13.22 69.1453 13.22Z" fill="#282828"/>
<path d="M74.7175 19.4V5.08001H76.5575L76.7175 6.60001H76.8375C77.1042 6.10667 77.5042 5.69334 78.0375 5.36001C78.5842 5.01334 79.2308 4.84001 79.9775 4.84001C80.7508 4.84001 81.4575 5.04001 82.0975 5.44001C82.7375 5.82667 83.2442 6.40667 83.6175 7.18001C84.0042 7.94001 84.1975 8.89334 84.1975 10.04C84.1975 11.1733 83.9975 12.1267 83.5975 12.9C83.2108 13.6733 82.6842 14.26 82.0175 14.66C81.3508 15.0467 80.6042 15.24 79.7775 15.24C79.0442 15.24 78.4308 15.0933 77.9375 14.8C77.4442 14.5067 77.0775 14.1733 76.8375 13.8V19.4H74.7175ZM79.4175 13.22C80.1642 13.22 80.7842 12.9533 81.2775 12.42C81.7842 11.8867 82.0375 11.0867 82.0375 10.02C82.0375 8.95334 81.7842 8.16001 81.2775 7.64001C80.7842 7.12001 80.1642 6.86001 79.4175 6.86001C78.6575 6.86001 78.0242 7.12667 77.5175 7.66001C77.0242 8.18001 76.7775 8.97334 76.7775 10.04C76.7775 11.0933 77.0242 11.8867 77.5175 12.42C78.0242 12.9533 78.6575 13.22 79.4175 13.22Z" fill="#282828"/>
</svg>
